<mxfile host="app.diagrams.net" modified="2021-01-06T00:28:47.164Z" agent="5.0 (Windows NT 10.0; Win64; x64) AppleWebKit/537.36 (KHTML, like Gecko) Chrome/86.0.4240.198 Safari/537.36" etag="51ll7NMpQzVBSvfU--59" version="14.1.1" type="github" pages="3">
  <diagram name="Classes-Modelo" id="c4acf3e9-155e-7222-9cf6-157b1a14988f">
    <mxGraphModel dx="1861" dy="449" grid="1" gridSize="10" guides="1" tooltips="1" connect="1" arrows="1" fold="1" page="1" pageScale="1" pageWidth="850" pageHeight="1100" background="#ffffff" math="0" shadow="0">
      <root>
        <mxCell id="0" />
        <mxCell id="1" parent="0" />
        <mxCell id="17acba5748e5396b-1" value="frame" style="shape=umlFrame;whiteSpace=wrap;html=1;rounded=0;shadow=0;comic=0;labelBackgroundColor=none;strokeWidth=1;fontFamily=Verdana;fontSize=10;align=center;" parent="1" vertex="1">
          <mxGeometry x="-60" y="10" width="820" height="1060" as="geometry" />
        </mxCell>
        <mxCell id="17acba5748e5396b-20" value="Furo" style="swimlane;html=1;fontStyle=0;childLayout=stackLayout;horizontal=1;startSize=26;fillColor=none;horizontalStack=0;resizeParent=1;resizeLast=0;collapsible=1;marginBottom=0;swimlaneFillColor=#ffffff;rounded=0;shadow=0;comic=0;labelBackgroundColor=none;strokeWidth=1;fontFamily=Verdana;fontSize=10;align=center;" parent="1" vertex="1">
          <mxGeometry x="90" y="42" width="160" height="110" as="geometry" />
        </mxCell>
        <mxCell id="17acba5748e5396b-24" value="+ nome&lt;br&gt;+ coordenada_x&lt;br&gt;+ coordenada_Y&lt;br&gt;+ cota_boca&lt;br&gt;+ profundidade" style="text;html=1;strokeColor=none;fillColor=none;align=left;verticalAlign=top;spacingLeft=4;spacingRight=4;whiteSpace=wrap;overflow=hidden;rotatable=0;points=[[0,0.5],[1,0.5]];portConstraint=eastwest;" parent="17acba5748e5396b-20" vertex="1">
          <mxGeometry y="26" width="160" height="84" as="geometry" />
        </mxCell>
        <mxCell id="5d2195bd80daf111-35" style="edgeStyle=orthogonalEdgeStyle;rounded=0;html=1;dashed=1;labelBackgroundColor=none;startFill=0;endArrow=open;endFill=0;endSize=10;fontFamily=Verdana;fontSize=10;" parent="1" edge="1">
          <mxGeometry relative="1" as="geometry">
            <Array as="points">
              <mxPoint x="545" y="970" />
              <mxPoint x="545" y="970" />
            </Array>
            <mxPoint x="545" y="1004" as="targetPoint" />
          </mxGeometry>
        </mxCell>
        <mxCell id="5d2195bd80daf111-34" style="edgeStyle=orthogonalEdgeStyle;rounded=0;html=1;dashed=1;labelBackgroundColor=none;startFill=0;endArrow=open;endFill=0;endSize=10;fontFamily=Verdana;fontSize=10;" parent="1" edge="1">
          <mxGeometry relative="1" as="geometry">
            <Array as="points">
              <mxPoint x="410" y="1029" />
              <mxPoint x="410" y="1029" />
            </Array>
            <mxPoint x="490" y="1029" as="targetPoint" />
          </mxGeometry>
        </mxCell>
        <mxCell id="C6Z6rODnfXY2d_j--N0c-7" style="edgeStyle=orthogonalEdgeStyle;rounded=0;orthogonalLoop=1;jettySize=auto;html=1;exitX=0.5;exitY=1;exitDx=0;exitDy=0;entryX=0.5;entryY=0;entryDx=0;entryDy=0;" parent="1" source="5d2195bd80daf111-18" target="C6Z6rODnfXY2d_j--N0c-3" edge="1">
          <mxGeometry relative="1" as="geometry" />
        </mxCell>
        <mxCell id="5d2195bd80daf111-18" value="&lt;p style=&quot;margin: 0px ; margin-top: 4px ; text-align: center&quot;&gt;&lt;b&gt;EntradaFuros&lt;/b&gt;&lt;/p&gt;&lt;hr size=&quot;1&quot;&gt;&lt;p style=&quot;margin: 0px ; margin-left: 4px&quot;&gt;+ identificação&lt;br&gt;+ num_colunas&lt;/p&gt;&lt;p style=&quot;margin: 0px ; margin-left: 4px&quot;&gt;+ nome_colunas&lt;/p&gt;&lt;p style=&quot;margin: 0px ; margin-left: 4px&quot;&gt;+ nome_furo&lt;/p&gt;" style="verticalAlign=top;align=left;overflow=fill;fontSize=12;fontFamily=Helvetica;html=1;rounded=0;shadow=0;comic=0;labelBackgroundColor=none;strokeWidth=1" parent="1" vertex="1">
          <mxGeometry x="380" y="42" width="190" height="103" as="geometry" />
        </mxCell>
        <mxCell id="C6Z6rODnfXY2d_j--N0c-2" style="edgeStyle=orthogonalEdgeStyle;rounded=0;orthogonalLoop=1;jettySize=auto;html=1;exitX=1;exitY=0.5;exitDx=0;exitDy=0;entryX=0.011;entryY=0.66;entryDx=0;entryDy=0;entryPerimeter=0;" parent="1" source="17acba5748e5396b-24" target="5d2195bd80daf111-18" edge="1">
          <mxGeometry relative="1" as="geometry" />
        </mxCell>
        <mxCell id="C6Z6rODnfXY2d_j--N0c-3" value="Modelo&#xa;" style="swimlane;fontStyle=1;align=center;verticalAlign=top;childLayout=stackLayout;horizontal=1;startSize=26;horizontalStack=0;resizeParent=1;resizeParentMax=0;resizeLast=0;collapsible=1;marginBottom=0;" parent="1" vertex="1">
          <mxGeometry x="332.21" y="260" width="285.57" height="500" as="geometry" />
        </mxCell>
        <mxCell id="C6Z6rODnfXY2d_j--N0c-4" value="+ x_minimo&#xa;+ y_minimo&#xa;+ z_minimo&#xa;+ x_maximo&#xa;+ y_maximo&#xa;+ z_maximo&#xa;+ abertura_x&#xa;+ abertura_y&#xa;+ abertura_z&#xa;+ blocos_x&#xa;+ blocos_y&#xa;+ blocos_z&#xa;+ sub_blocos_x&#xa;+ sub_blocos_y&#xa;+ sub_blocos_z&#xa;+ dist_max&#xa;+ lado&#xa;+ dist_vert&#xa;+ altura&#xa;+ num_pontos&#xa;+ dist_med&#xa;+ min_bloco&#xa;+ max_bloco&#xa;+ met_calculo&#xa;+ poten_id&#xa;+ constante_em" style="text;strokeColor=none;fillColor=none;align=left;verticalAlign=top;spacingLeft=4;spacingRight=4;overflow=hidden;rotatable=0;points=[[0,0.5],[1,0.5]];portConstraint=eastwest;" parent="C6Z6rODnfXY2d_j--N0c-3" vertex="1">
          <mxGeometry y="26" width="285.57" height="394" as="geometry" />
        </mxCell>
        <mxCell id="C6Z6rODnfXY2d_j--N0c-5" value="" style="line;strokeWidth=1;fillColor=none;align=left;verticalAlign=middle;spacingTop=-1;spacingLeft=3;spacingRight=3;rotatable=0;labelPosition=right;points=[];portConstraint=eastwest;" parent="C6Z6rODnfXY2d_j--N0c-3" vertex="1">
          <mxGeometry y="420" width="285.57" height="8" as="geometry" />
        </mxCell>
        <mxCell id="C6Z6rODnfXY2d_j--N0c-6" value="+ gerar_modelo()&#xa;+ recortar_area()" style="text;strokeColor=none;fillColor=none;align=left;verticalAlign=top;spacingLeft=4;spacingRight=4;overflow=hidden;rotatable=0;points=[[0,0.5],[1,0.5]];portConstraint=eastwest;" parent="C6Z6rODnfXY2d_j--N0c-3" vertex="1">
          <mxGeometry y="428" width="285.57" height="72" as="geometry" />
        </mxCell>
      </root>
    </mxGraphModel>
  </diagram>
  <diagram id="1eDWYbJac1O-OvMwTvV3" name="Casos de Uso">
    <mxGraphModel dx="1871" dy="1299" grid="1" gridSize="10" guides="1" tooltips="1" connect="1" arrows="1" fold="1" page="1" pageScale="1" pageWidth="1100" pageHeight="850" math="0" shadow="0">
      <root>
        <mxCell id="wt1WEG8j4BmYl2G6qrXp-0" />
        <mxCell id="wt1WEG8j4BmYl2G6qrXp-1" parent="wt1WEG8j4BmYl2G6qrXp-0" />
        <mxCell id="wt1WEG8j4BmYl2G6qrXp-5" value="" style="orthogonalLoop=1;jettySize=auto;html=1;" parent="wt1WEG8j4BmYl2G6qrXp-1" target="wt1WEG8j4BmYl2G6qrXp-4" edge="1">
          <mxGeometry relative="1" as="geometry">
            <mxPoint x="130" y="296" as="sourcePoint" />
          </mxGeometry>
        </mxCell>
        <mxCell id="wt1WEG8j4BmYl2G6qrXp-11" value="" style="orthogonalLoop=1;jettySize=auto;html=1;" parent="wt1WEG8j4BmYl2G6qrXp-1" source="wt1WEG8j4BmYl2G6qrXp-2" target="wt1WEG8j4BmYl2G6qrXp-10" edge="1">
          <mxGeometry relative="1" as="geometry" />
        </mxCell>
        <mxCell id="jiYsSKbfK0XnRyVLSb23-24" style="edgeStyle=none;orthogonalLoop=1;jettySize=auto;html=1;entryX=0.5;entryY=0;entryDx=0;entryDy=0;" edge="1" parent="wt1WEG8j4BmYl2G6qrXp-1" source="wt1WEG8j4BmYl2G6qrXp-2" target="jiYsSKbfK0XnRyVLSb23-21">
          <mxGeometry relative="1" as="geometry">
            <mxPoint x="140" y="360" as="sourcePoint" />
          </mxGeometry>
        </mxCell>
        <mxCell id="jiYsSKbfK0XnRyVLSb23-37" style="edgeStyle=none;orthogonalLoop=1;jettySize=auto;html=1;entryX=0.5;entryY=0;entryDx=0;entryDy=0;exitX=0;exitY=1;exitDx=0;exitDy=0;exitPerimeter=0;" edge="1" parent="wt1WEG8j4BmYl2G6qrXp-1" source="wt1WEG8j4BmYl2G6qrXp-2" target="jiYsSKbfK0XnRyVLSb23-36">
          <mxGeometry relative="1" as="geometry">
            <mxPoint x="80" y="360" as="sourcePoint" />
          </mxGeometry>
        </mxCell>
        <mxCell id="wt1WEG8j4BmYl2G6qrXp-2" value="Actor" style="shape=umlActor;verticalLabelPosition=bottom;verticalAlign=top;html=1;direction=east;" parent="wt1WEG8j4BmYl2G6qrXp-1" vertex="1">
          <mxGeometry x="90" y="260" width="40" height="80" as="geometry" />
        </mxCell>
        <mxCell id="wt1WEG8j4BmYl2G6qrXp-4" value="Abrir&lt;br&gt;Arquivo&amp;nbsp;&lt;br&gt;de Furos" style="ellipse;whiteSpace=wrap;html=1;verticalAlign=top;" parent="wt1WEG8j4BmYl2G6qrXp-1" vertex="1">
          <mxGeometry x="280" y="50" width="120" height="80" as="geometry" />
        </mxCell>
        <mxCell id="wt1WEG8j4BmYl2G6qrXp-6" value="Recortar&lt;br&gt;área de&amp;nbsp;&lt;br&gt;interesse" style="ellipse;whiteSpace=wrap;html=1;verticalAlign=top;" parent="wt1WEG8j4BmYl2G6qrXp-1" vertex="1">
          <mxGeometry x="550" y="30" width="120" height="80" as="geometry" />
        </mxCell>
        <mxCell id="wt1WEG8j4BmYl2G6qrXp-8" value="Salvar&amp;nbsp;&lt;br&gt;desenho&amp;nbsp;&lt;br&gt;gerado" style="ellipse;whiteSpace=wrap;html=1;verticalAlign=top;" parent="wt1WEG8j4BmYl2G6qrXp-1" vertex="1">
          <mxGeometry x="640" y="200" width="120" height="80" as="geometry" />
        </mxCell>
        <mxCell id="wt1WEG8j4BmYl2G6qrXp-10" value="Desenhar&amp;nbsp;&lt;br&gt;modelo&lt;br&gt;tridimensional" style="ellipse;whiteSpace=wrap;html=1;verticalAlign=top;" parent="wt1WEG8j4BmYl2G6qrXp-1" vertex="1">
          <mxGeometry x="350" y="270" width="120" height="80" as="geometry" />
        </mxCell>
        <mxCell id="wt1WEG8j4BmYl2G6qrXp-12" value="Limpar&lt;br&gt;Tela" style="ellipse;whiteSpace=wrap;html=1;verticalAlign=top;" parent="wt1WEG8j4BmYl2G6qrXp-1" vertex="1">
          <mxGeometry x="650" y="420" width="120" height="80" as="geometry" />
        </mxCell>
        <mxCell id="wt1WEG8j4BmYl2G6qrXp-14" value="Realizar&amp;nbsp;&lt;br&gt;deslocamento&lt;br&gt;relativo" style="ellipse;whiteSpace=wrap;html=1;verticalAlign=top;" parent="wt1WEG8j4BmYl2G6qrXp-1" vertex="1">
          <mxGeometry x="550" y="550" width="120" height="80" as="geometry" />
        </mxCell>
        <mxCell id="jiYsSKbfK0XnRyVLSb23-0" value="" style="endArrow=block;dashed=1;endFill=0;endSize=12;html=1;entryX=0;entryY=0.5;entryDx=0;entryDy=0;exitX=1;exitY=0.5;exitDx=0;exitDy=0;" edge="1" parent="wt1WEG8j4BmYl2G6qrXp-1" source="wt1WEG8j4BmYl2G6qrXp-10" target="wt1WEG8j4BmYl2G6qrXp-8">
          <mxGeometry width="160" relative="1" as="geometry">
            <mxPoint x="510" y="440" as="sourcePoint" />
            <mxPoint x="580" y="410" as="targetPoint" />
          </mxGeometry>
        </mxCell>
        <mxCell id="jiYsSKbfK0XnRyVLSb23-1" value="&amp;lt;&amp;lt;extends&amp;gt;&amp;gt;" style="text;html=1;strokeColor=none;fillColor=none;align=center;verticalAlign=middle;whiteSpace=wrap;rotation=0;" vertex="1" parent="wt1WEG8j4BmYl2G6qrXp-1">
          <mxGeometry x="550" y="260" width="40" height="20" as="geometry" />
        </mxCell>
        <mxCell id="jiYsSKbfK0XnRyVLSb23-3" value="Acrescentar&amp;nbsp;&lt;br&gt;sondagens" style="ellipse;whiteSpace=wrap;html=1;verticalAlign=top;" vertex="1" parent="wt1WEG8j4BmYl2G6qrXp-1">
          <mxGeometry x="660" y="300" width="120" height="80" as="geometry" />
        </mxCell>
        <mxCell id="jiYsSKbfK0XnRyVLSb23-4" value="" style="endArrow=block;dashed=1;endFill=0;endSize=12;html=1;entryX=0;entryY=0.375;entryDx=0;entryDy=0;entryPerimeter=0;exitX=0.983;exitY=0.663;exitDx=0;exitDy=0;exitPerimeter=0;" edge="1" parent="wt1WEG8j4BmYl2G6qrXp-1" source="wt1WEG8j4BmYl2G6qrXp-10" target="jiYsSKbfK0XnRyVLSb23-3">
          <mxGeometry width="160" relative="1" as="geometry">
            <mxPoint x="520" y="460" as="sourcePoint" />
            <mxPoint x="605.04" y="380" as="targetPoint" />
          </mxGeometry>
        </mxCell>
        <mxCell id="jiYsSKbfK0XnRyVLSb23-6" value="&amp;lt;&amp;lt;extends&amp;gt;&amp;gt;" style="text;html=1;strokeColor=none;fillColor=none;align=center;verticalAlign=middle;whiteSpace=wrap;rotation=0;" vertex="1" parent="wt1WEG8j4BmYl2G6qrXp-1">
          <mxGeometry x="560" y="435" width="40" height="20" as="geometry" />
        </mxCell>
        <mxCell id="jiYsSKbfK0XnRyVLSb23-7" value="" style="endArrow=block;dashed=1;endFill=0;endSize=12;html=1;entryX=0.017;entryY=0.288;entryDx=0;entryDy=0;entryPerimeter=0;exitX=1;exitY=1;exitDx=0;exitDy=0;" edge="1" parent="wt1WEG8j4BmYl2G6qrXp-1" source="wt1WEG8j4BmYl2G6qrXp-10" target="wt1WEG8j4BmYl2G6qrXp-12">
          <mxGeometry width="160" relative="1" as="geometry">
            <mxPoint x="530" y="470" as="sourcePoint" />
            <mxPoint x="650" y="465" as="targetPoint" />
          </mxGeometry>
        </mxCell>
        <mxCell id="jiYsSKbfK0XnRyVLSb23-8" value="&amp;lt;&amp;lt;extends&amp;gt;&amp;gt;" style="text;html=1;strokeColor=none;fillColor=none;align=center;verticalAlign=middle;whiteSpace=wrap;rotation=30;" vertex="1" parent="wt1WEG8j4BmYl2G6qrXp-1">
          <mxGeometry x="550" y="505" width="40" height="20" as="geometry" />
        </mxCell>
        <mxCell id="jiYsSKbfK0XnRyVLSb23-9" value="" style="endArrow=block;dashed=1;endFill=0;endSize=12;html=1;entryX=0;entryY=0.5;entryDx=0;entryDy=0;exitX=1;exitY=0.5;exitDx=0;exitDy=0;" edge="1" parent="wt1WEG8j4BmYl2G6qrXp-1" source="jiYsSKbfK0XnRyVLSb23-10" target="wt1WEG8j4BmYl2G6qrXp-6">
          <mxGeometry width="160" relative="1" as="geometry">
            <mxPoint x="481.21" y="296.72" as="sourcePoint" />
            <mxPoint x="578.7835931288073" y="220.0042712474619" as="targetPoint" />
          </mxGeometry>
        </mxCell>
        <mxCell id="jiYsSKbfK0XnRyVLSb23-12" value="" style="endArrow=block;dashed=1;endFill=0;endSize=12;html=1;entryX=0.5;entryY=0;entryDx=0;entryDy=0;exitX=0.5;exitY=1;exitDx=0;exitDy=0;" edge="1" parent="wt1WEG8j4BmYl2G6qrXp-1" source="wt1WEG8j4BmYl2G6qrXp-10" target="wt1WEG8j4BmYl2G6qrXp-14">
          <mxGeometry width="160" relative="1" as="geometry">
            <mxPoint x="400.3864068711927" y="505.0042712474618" as="sourcePoint" />
            <mxPoint x="570" y="604.76" as="targetPoint" />
          </mxGeometry>
        </mxCell>
        <mxCell id="jiYsSKbfK0XnRyVLSb23-13" value="&amp;lt;&amp;lt;extends&amp;gt;&amp;gt;" style="text;html=1;strokeColor=none;fillColor=none;align=center;verticalAlign=middle;whiteSpace=wrap;rotation=45;" vertex="1" parent="wt1WEG8j4BmYl2G6qrXp-1">
          <mxGeometry x="500" y="540" width="40" height="20" as="geometry" />
        </mxCell>
        <mxCell id="jiYsSKbfK0XnRyVLSb23-14" value="Verificação&lt;br&gt;e correção&amp;nbsp;&lt;br&gt;de inconsistência&lt;br&gt;de dados" style="ellipse;whiteSpace=wrap;html=1;verticalAlign=top;" vertex="1" parent="wt1WEG8j4BmYl2G6qrXp-1">
          <mxGeometry x="470" y="-140" width="120" height="80" as="geometry" />
        </mxCell>
        <mxCell id="jiYsSKbfK0XnRyVLSb23-16" value="" style="endArrow=block;dashed=1;endFill=0;endSize=12;html=1;entryX=0;entryY=1;entryDx=0;entryDy=0;exitX=0.5;exitY=0;exitDx=0;exitDy=0;" edge="1" parent="wt1WEG8j4BmYl2G6qrXp-1" source="jiYsSKbfK0XnRyVLSb23-17" target="jiYsSKbfK0XnRyVLSb23-14">
          <mxGeometry width="160" relative="1" as="geometry">
            <mxPoint x="440" y="160" as="sourcePoint" />
            <mxPoint x="560" y="189" as="targetPoint" />
          </mxGeometry>
        </mxCell>
        <mxCell id="jiYsSKbfK0XnRyVLSb23-18" value="Visualizar&lt;br&gt;diagramas de&lt;br&gt;cercas" style="ellipse;whiteSpace=wrap;html=1;verticalAlign=top;" vertex="1" parent="wt1WEG8j4BmYl2G6qrXp-1">
          <mxGeometry x="430" y="620" width="120" height="80" as="geometry" />
        </mxCell>
        <mxCell id="jiYsSKbfK0XnRyVLSb23-19" value="" style="endArrow=block;dashed=1;endFill=0;endSize=12;html=1;entryX=0.5;entryY=0;entryDx=0;entryDy=0;exitX=0.233;exitY=0.938;exitDx=0;exitDy=0;exitPerimeter=0;" edge="1" parent="wt1WEG8j4BmYl2G6qrXp-1" target="jiYsSKbfK0XnRyVLSb23-18" source="wt1WEG8j4BmYl2G6qrXp-10">
          <mxGeometry width="160" relative="1" as="geometry">
            <mxPoint x="410" y="500" as="sourcePoint" />
            <mxPoint x="400" y="624.76" as="targetPoint" />
          </mxGeometry>
        </mxCell>
        <mxCell id="jiYsSKbfK0XnRyVLSb23-20" value="&amp;lt;&amp;lt;extends&amp;gt;&amp;gt;" style="text;html=1;strokeColor=none;fillColor=none;align=center;verticalAlign=middle;whiteSpace=wrap;rotation=0;" vertex="1" parent="wt1WEG8j4BmYl2G6qrXp-1">
          <mxGeometry x="350" y="560" width="40" height="20" as="geometry" />
        </mxCell>
        <mxCell id="jiYsSKbfK0XnRyVLSb23-21" value="Calcular&amp;nbsp;&lt;br&gt;Variogramas&lt;br&gt;Experimentais" style="ellipse;whiteSpace=wrap;html=1;verticalAlign=top;" vertex="1" parent="wt1WEG8j4BmYl2G6qrXp-1">
          <mxGeometry x="160" y="560" width="120" height="80" as="geometry" />
        </mxCell>
        <mxCell id="jiYsSKbfK0XnRyVLSb23-25" value="Gerar&amp;nbsp;&lt;br&gt;Modelos&lt;br&gt;Experimentais" style="ellipse;whiteSpace=wrap;html=1;verticalAlign=top;" vertex="1" parent="wt1WEG8j4BmYl2G6qrXp-1">
          <mxGeometry x="150" y="800" width="120" height="80" as="geometry" />
        </mxCell>
        <mxCell id="jiYsSKbfK0XnRyVLSb23-26" value="" style="endArrow=block;dashed=1;endFill=0;endSize=12;html=1;entryX=0.5;entryY=0;entryDx=0;entryDy=0;exitX=0.392;exitY=1.025;exitDx=0;exitDy=0;exitPerimeter=0;" edge="1" parent="wt1WEG8j4BmYl2G6qrXp-1" target="jiYsSKbfK0XnRyVLSb23-25" source="jiYsSKbfK0XnRyVLSb23-21">
          <mxGeometry width="160" relative="1" as="geometry">
            <mxPoint x="80.03999999999996" y="640" as="sourcePoint" />
            <mxPoint x="80" y="769.76" as="targetPoint" />
          </mxGeometry>
        </mxCell>
        <mxCell id="jiYsSKbfK0XnRyVLSb23-27" value="&amp;lt;&amp;lt;extends&amp;gt;&amp;gt;" style="text;html=1;strokeColor=none;fillColor=none;align=center;verticalAlign=middle;whiteSpace=wrap;rotation=0;" vertex="1" parent="wt1WEG8j4BmYl2G6qrXp-1">
          <mxGeometry x="150" y="700" width="40" height="20" as="geometry" />
        </mxCell>
        <mxCell id="jiYsSKbfK0XnRyVLSb23-30" value="" style="endArrow=block;dashed=1;endFill=0;endSize=12;html=1;entryX=0.5;entryY=0;entryDx=0;entryDy=0;" edge="1" parent="wt1WEG8j4BmYl2G6qrXp-1" target="jiYsSKbfK0XnRyVLSb23-34">
          <mxGeometry width="160" relative="1" as="geometry">
            <mxPoint x="200" y="880" as="sourcePoint" />
            <mxPoint x="270" y="920" as="targetPoint" />
          </mxGeometry>
        </mxCell>
        <mxCell id="jiYsSKbfK0XnRyVLSb23-31" value="&amp;lt;&amp;lt;extends&amp;gt;&amp;gt;" style="text;html=1;strokeColor=none;fillColor=none;align=center;verticalAlign=middle;whiteSpace=wrap;rotation=0;" vertex="1" parent="wt1WEG8j4BmYl2G6qrXp-1">
          <mxGeometry x="219.99999999999994" y="910" width="40" height="20" as="geometry" />
        </mxCell>
        <mxCell id="jiYsSKbfK0XnRyVLSb23-34" value="Salvar gráficos&lt;br&gt;experimentais" style="ellipse;whiteSpace=wrap;html=1;verticalAlign=top;" vertex="1" parent="wt1WEG8j4BmYl2G6qrXp-1">
          <mxGeometry x="140" y="990" width="120" height="80" as="geometry" />
        </mxCell>
        <mxCell id="jiYsSKbfK0XnRyVLSb23-36" value="Fundir&lt;br&gt;Modelos" style="ellipse;whiteSpace=wrap;html=1;verticalAlign=top;" vertex="1" parent="wt1WEG8j4BmYl2G6qrXp-1">
          <mxGeometry x="-20" y="500" width="120" height="80" as="geometry" />
        </mxCell>
        <mxCell id="jiYsSKbfK0XnRyVLSb23-38" style="edgeStyle=none;orthogonalLoop=1;jettySize=auto;html=1;entryX=0.5;entryY=0;entryDx=0;entryDy=0;exitX=0.5;exitY=0;exitDx=0;exitDy=0;exitPerimeter=0;" edge="1" parent="wt1WEG8j4BmYl2G6qrXp-1" target="jiYsSKbfK0XnRyVLSb23-39" source="wt1WEG8j4BmYl2G6qrXp-2">
          <mxGeometry relative="1" as="geometry">
            <mxPoint x="130" y="250" as="sourcePoint" />
          </mxGeometry>
        </mxCell>
        <mxCell id="jiYsSKbfK0XnRyVLSb23-39" value="Salvar Histórico&lt;br&gt;de dados" style="ellipse;whiteSpace=wrap;html=1;verticalAlign=top;" vertex="1" parent="wt1WEG8j4BmYl2G6qrXp-1">
          <mxGeometry x="150" y="-140" width="120" height="80" as="geometry" />
        </mxCell>
        <mxCell id="jiYsSKbfK0XnRyVLSb23-17" value="&amp;lt;&amp;lt;includes&amp;gt;&amp;gt;" style="text;html=1;strokeColor=none;fillColor=none;align=center;verticalAlign=middle;whiteSpace=wrap;rotation=0;" vertex="1" parent="wt1WEG8j4BmYl2G6qrXp-1">
          <mxGeometry x="400" y="-20" width="40" height="20" as="geometry" />
        </mxCell>
        <mxCell id="jiYsSKbfK0XnRyVLSb23-42" value="" style="endArrow=block;dashed=1;endFill=0;endSize=12;html=1;entryX=0;entryY=1;entryDx=0;entryDy=0;exitX=0.5;exitY=0;exitDx=0;exitDy=0;" edge="1" parent="wt1WEG8j4BmYl2G6qrXp-1" source="wt1WEG8j4BmYl2G6qrXp-4" target="jiYsSKbfK0XnRyVLSb23-17">
          <mxGeometry width="160" relative="1" as="geometry">
            <mxPoint x="340" y="50" as="sourcePoint" />
            <mxPoint x="487.57359312880726" y="-71.71572875253833" as="targetPoint" />
          </mxGeometry>
        </mxCell>
        <mxCell id="jiYsSKbfK0XnRyVLSb23-10" value="&amp;lt;&amp;lt;extends&amp;gt;&amp;gt;" style="text;html=1;strokeColor=none;fillColor=none;align=center;verticalAlign=middle;whiteSpace=wrap;rotation=0;" vertex="1" parent="wt1WEG8j4BmYl2G6qrXp-1">
          <mxGeometry x="450" y="120" width="40" height="20" as="geometry" />
        </mxCell>
        <mxCell id="jiYsSKbfK0XnRyVLSb23-45" value="" style="endArrow=block;dashed=1;endFill=0;endSize=12;html=1;entryX=0;entryY=0.5;entryDx=0;entryDy=0;exitX=1;exitY=0.5;exitDx=0;exitDy=0;" edge="1" parent="wt1WEG8j4BmYl2G6qrXp-1" source="wt1WEG8j4BmYl2G6qrXp-4" target="jiYsSKbfK0XnRyVLSb23-10">
          <mxGeometry width="160" relative="1" as="geometry">
            <mxPoint x="400" y="90" as="sourcePoint" />
            <mxPoint x="530" y="140" as="targetPoint" />
          </mxGeometry>
        </mxCell>
      </root>
    </mxGraphModel>
  </diagram>
  <diagram id="bpvwRCxJYaJNyarx6e42" name="MVC">
    <mxGraphModel dx="1011" dy="449" grid="1" gridSize="10" guides="1" tooltips="1" connect="1" arrows="1" fold="1" page="1" pageScale="1" pageWidth="1100" pageHeight="850" math="0" shadow="0">
      <root>
        <mxCell id="Djli0VLdjuVr_oW39nnG-0" />
        <mxCell id="Djli0VLdjuVr_oW39nnG-1" parent="Djli0VLdjuVr_oW39nnG-0" />
        <mxCell id="Djli0VLdjuVr_oW39nnG-10" value="" style="group" vertex="1" connectable="0" parent="Djli0VLdjuVr_oW39nnG-1">
          <mxGeometry x="160" y="460" width="160" height="180" as="geometry" />
        </mxCell>
        <mxCell id="Djli0VLdjuVr_oW39nnG-5" value="" style="rounded=0;whiteSpace=wrap;html=1;align=center;" vertex="1" parent="Djli0VLdjuVr_oW39nnG-10">
          <mxGeometry width="160" height="130" as="geometry" />
        </mxCell>
        <mxCell id="Djli0VLdjuVr_oW39nnG-6" value="&lt;b&gt;Controlador&lt;/b&gt;" style="text;html=1;strokeColor=none;fillColor=#CCCCCC;align=center;verticalAlign=middle;whiteSpace=wrap;rounded=0;" vertex="1" parent="Djli0VLdjuVr_oW39nnG-10">
          <mxGeometry width="160" height="40" as="geometry" />
        </mxCell>
        <mxCell id="Djli0VLdjuVr_oW39nnG-35" value="&lt;div&gt;&lt;font style=&quot;font-size: 11px&quot;&gt;Processamento de solicitação HTTP&lt;/font&gt;&lt;/div&gt;" style="text;html=1;strokeColor=none;fillColor=none;align=left;verticalAlign=middle;whiteSpace=wrap;rounded=0;" vertex="1" parent="Djli0VLdjuVr_oW39nnG-10">
          <mxGeometry y="40" width="160" height="30" as="geometry" />
        </mxCell>
        <mxCell id="Djli0VLdjuVr_oW39nnG-36" value="&lt;div&gt;&lt;font style=&quot;font-size: 11px&quot;&gt;Lógica específica de aplicação&lt;/font&gt;&lt;/div&gt;" style="text;html=1;strokeColor=none;fillColor=none;align=left;verticalAlign=middle;whiteSpace=wrap;rounded=0;" vertex="1" parent="Djli0VLdjuVr_oW39nnG-10">
          <mxGeometry y="70" width="160" height="30" as="geometry" />
        </mxCell>
        <mxCell id="Djli0VLdjuVr_oW39nnG-37" value="&lt;div&gt;&lt;font style=&quot;font-size: 11px&quot;&gt;Validação de dados&lt;/font&gt;&lt;/div&gt;" style="text;html=1;strokeColor=none;fillColor=none;align=left;verticalAlign=middle;whiteSpace=wrap;rounded=0;" vertex="1" parent="Djli0VLdjuVr_oW39nnG-10">
          <mxGeometry y="100" width="160" height="30" as="geometry" />
        </mxCell>
        <mxCell id="Djli0VLdjuVr_oW39nnG-11" value="" style="group" vertex="1" connectable="0" parent="Djli0VLdjuVr_oW39nnG-1">
          <mxGeometry x="530" y="460" width="160" height="180" as="geometry" />
        </mxCell>
        <mxCell id="Djli0VLdjuVr_oW39nnG-12" value="" style="rounded=0;whiteSpace=wrap;html=1;align=center;" vertex="1" parent="Djli0VLdjuVr_oW39nnG-11">
          <mxGeometry width="160" height="130" as="geometry" />
        </mxCell>
        <mxCell id="Djli0VLdjuVr_oW39nnG-13" value="&lt;b&gt;Visão&lt;/b&gt;" style="text;html=1;strokeColor=none;fillColor=#CCCCCC;align=center;verticalAlign=middle;whiteSpace=wrap;rounded=0;" vertex="1" parent="Djli0VLdjuVr_oW39nnG-11">
          <mxGeometry width="160" height="40" as="geometry" />
        </mxCell>
        <mxCell id="Djli0VLdjuVr_oW39nnG-38" value="Página Dinâmica" style="text;html=1;strokeColor=none;fillColor=none;align=left;verticalAlign=middle;whiteSpace=wrap;rounded=0;" vertex="1" parent="Djli0VLdjuVr_oW39nnG-11">
          <mxGeometry y="40" width="160" height="20" as="geometry" />
        </mxCell>
        <mxCell id="Djli0VLdjuVr_oW39nnG-39" value="Geração" style="text;html=1;strokeColor=none;fillColor=none;align=left;verticalAlign=middle;whiteSpace=wrap;rounded=0;" vertex="1" parent="Djli0VLdjuVr_oW39nnG-11">
          <mxGeometry y="60" width="60" height="20" as="geometry" />
        </mxCell>
        <mxCell id="Djli0VLdjuVr_oW39nnG-40" value="Gerenciamento de formulários" style="text;html=1;strokeColor=none;fillColor=none;align=left;verticalAlign=middle;whiteSpace=wrap;rounded=0;" vertex="1" parent="Djli0VLdjuVr_oW39nnG-11">
          <mxGeometry y="90" width="160" height="20" as="geometry" />
        </mxCell>
        <mxCell id="Djli0VLdjuVr_oW39nnG-14" value="" style="group" vertex="1" connectable="0" parent="Djli0VLdjuVr_oW39nnG-1">
          <mxGeometry x="350" y="690" width="160" height="180" as="geometry" />
        </mxCell>
        <mxCell id="Djli0VLdjuVr_oW39nnG-15" value="" style="rounded=0;whiteSpace=wrap;html=1;align=center;" vertex="1" parent="Djli0VLdjuVr_oW39nnG-14">
          <mxGeometry width="160" height="100" as="geometry" />
        </mxCell>
        <mxCell id="Djli0VLdjuVr_oW39nnG-16" value="&lt;b&gt;Modelo&lt;/b&gt;" style="text;html=1;strokeColor=none;fillColor=#CCCCCC;align=center;verticalAlign=middle;whiteSpace=wrap;rounded=0;" vertex="1" parent="Djli0VLdjuVr_oW39nnG-14">
          <mxGeometry width="160" height="40" as="geometry" />
        </mxCell>
        <mxCell id="Djli0VLdjuVr_oW39nnG-41" value="Lógica de Dados" style="text;html=1;strokeColor=none;fillColor=none;align=left;verticalAlign=middle;whiteSpace=wrap;rounded=0;" vertex="1" parent="Djli0VLdjuVr_oW39nnG-14">
          <mxGeometry y="40" width="160" height="20" as="geometry" />
        </mxCell>
        <mxCell id="Djli0VLdjuVr_oW39nnG-42" value="Banco de Dados" style="text;html=1;strokeColor=none;fillColor=none;align=left;verticalAlign=middle;whiteSpace=wrap;rounded=0;" vertex="1" parent="Djli0VLdjuVr_oW39nnG-14">
          <mxGeometry y="60" width="160" height="20" as="geometry" />
        </mxCell>
        <mxCell id="Djli0VLdjuVr_oW39nnG-17" style="edgeStyle=orthogonalEdgeStyle;rounded=0;orthogonalLoop=1;jettySize=auto;html=1;exitX=0.5;exitY=1;exitDx=0;exitDy=0;entryX=0.006;entryY=0.572;entryDx=0;entryDy=0;entryPerimeter=0;" edge="1" parent="Djli0VLdjuVr_oW39nnG-1" source="Djli0VLdjuVr_oW39nnG-5" target="Djli0VLdjuVr_oW39nnG-15">
          <mxGeometry relative="1" as="geometry" />
        </mxCell>
        <mxCell id="Djli0VLdjuVr_oW39nnG-20" style="edgeStyle=orthogonalEdgeStyle;rounded=0;orthogonalLoop=1;jettySize=auto;html=1;exitX=1;exitY=0.5;exitDx=0;exitDy=0;entryX=0.5;entryY=1;entryDx=0;entryDy=0;" edge="1" parent="Djli0VLdjuVr_oW39nnG-1" source="Djli0VLdjuVr_oW39nnG-15" target="Djli0VLdjuVr_oW39nnG-12">
          <mxGeometry relative="1" as="geometry" />
        </mxCell>
        <mxCell id="Djli0VLdjuVr_oW39nnG-21" style="edgeStyle=orthogonalEdgeStyle;rounded=0;orthogonalLoop=1;jettySize=auto;html=1;exitX=1;exitY=0.5;exitDx=0;exitDy=0;entryX=0;entryY=0.5;entryDx=0;entryDy=0;" edge="1" parent="Djli0VLdjuVr_oW39nnG-1" source="Djli0VLdjuVr_oW39nnG-5" target="Djli0VLdjuVr_oW39nnG-12">
          <mxGeometry relative="1" as="geometry" />
        </mxCell>
        <mxCell id="Djli0VLdjuVr_oW39nnG-22" style="edgeStyle=orthogonalEdgeStyle;rounded=0;orthogonalLoop=1;jettySize=auto;html=1;exitX=0;exitY=0.75;exitDx=0;exitDy=0;entryX=1;entryY=0.75;entryDx=0;entryDy=0;" edge="1" parent="Djli0VLdjuVr_oW39nnG-1" source="Djli0VLdjuVr_oW39nnG-12" target="Djli0VLdjuVr_oW39nnG-5">
          <mxGeometry relative="1" as="geometry" />
        </mxCell>
        <mxCell id="Djli0VLdjuVr_oW39nnG-23" style="edgeStyle=orthogonalEdgeStyle;rounded=0;orthogonalLoop=1;jettySize=auto;html=1;exitX=0.75;exitY=1;exitDx=0;exitDy=0;entryX=1;entryY=0.75;entryDx=0;entryDy=0;" edge="1" parent="Djli0VLdjuVr_oW39nnG-1" source="Djli0VLdjuVr_oW39nnG-12" target="Djli0VLdjuVr_oW39nnG-15">
          <mxGeometry relative="1" as="geometry" />
        </mxCell>
        <mxCell id="Djli0VLdjuVr_oW39nnG-24" value="Eventos do Usuário" style="text;html=1;strokeColor=none;fillColor=none;align=center;verticalAlign=middle;whiteSpace=wrap;rounded=0;" vertex="1" parent="Djli0VLdjuVr_oW39nnG-1">
          <mxGeometry x="370" y="570" width="100" height="20" as="geometry" />
        </mxCell>
        <mxCell id="Djli0VLdjuVr_oW39nnG-25" value="Seleção de Visão" style="text;html=1;strokeColor=none;fillColor=none;align=center;verticalAlign=middle;whiteSpace=wrap;rounded=0;" vertex="1" parent="Djli0VLdjuVr_oW39nnG-1">
          <mxGeometry x="380" y="490" width="80" height="20" as="geometry" />
        </mxCell>
        <mxCell id="Djli0VLdjuVr_oW39nnG-26" value="Mudança de Estado" style="text;html=1;strokeColor=none;fillColor=none;align=center;verticalAlign=middle;whiteSpace=wrap;rounded=0;" vertex="1" parent="Djli0VLdjuVr_oW39nnG-1">
          <mxGeometry x="160" y="650" width="60" height="20" as="geometry" />
        </mxCell>
        <mxCell id="Djli0VLdjuVr_oW39nnG-27" value="Notificação de Mudança" style="text;html=1;strokeColor=none;fillColor=none;align=center;verticalAlign=middle;whiteSpace=wrap;rounded=0;" vertex="1" parent="Djli0VLdjuVr_oW39nnG-1">
          <mxGeometry x="530" y="710" width="70" height="20" as="geometry" />
        </mxCell>
        <mxCell id="Djli0VLdjuVr_oW39nnG-28" value="Consulta de Estado" style="text;html=1;strokeColor=none;fillColor=none;align=center;verticalAlign=middle;whiteSpace=wrap;rounded=0;" vertex="1" parent="Djli0VLdjuVr_oW39nnG-1">
          <mxGeometry x="670" y="730" width="70" height="20" as="geometry" />
        </mxCell>
        <mxCell id="Djli0VLdjuVr_oW39nnG-31" style="rounded=0;orthogonalLoop=1;jettySize=auto;html=1;exitX=0;exitY=1;exitDx=0;exitDy=0;entryX=0.5;entryY=0;entryDx=0;entryDy=0;" edge="1" parent="Djli0VLdjuVr_oW39nnG-1" source="Djli0VLdjuVr_oW39nnG-29" target="Djli0VLdjuVr_oW39nnG-6">
          <mxGeometry relative="1" as="geometry" />
        </mxCell>
        <mxCell id="Djli0VLdjuVr_oW39nnG-32" style="rounded=0;orthogonalLoop=1;jettySize=auto;html=1;exitX=0.5;exitY=0;exitDx=0;exitDy=0;entryX=0.898;entryY=0.798;entryDx=0;entryDy=0;entryPerimeter=0;" edge="1" parent="Djli0VLdjuVr_oW39nnG-1" source="Djli0VLdjuVr_oW39nnG-13" target="Djli0VLdjuVr_oW39nnG-29">
          <mxGeometry relative="1" as="geometry">
            <mxPoint x="510" y="310" as="targetPoint" />
          </mxGeometry>
        </mxCell>
        <mxCell id="Djli0VLdjuVr_oW39nnG-43" value="" style="group" vertex="1" connectable="0" parent="Djli0VLdjuVr_oW39nnG-1">
          <mxGeometry x="315" y="330" width="210" height="80" as="geometry" />
        </mxCell>
        <mxCell id="Djli0VLdjuVr_oW39nnG-29" value="" style="ellipse;whiteSpace=wrap;html=1;fillColor=#CCCCCC;" vertex="1" parent="Djli0VLdjuVr_oW39nnG-43">
          <mxGeometry width="210" height="80" as="geometry" />
        </mxCell>
        <mxCell id="Djli0VLdjuVr_oW39nnG-30" value="&lt;b&gt;Browser&lt;/b&gt;" style="text;html=1;strokeColor=none;fillColor=none;align=center;verticalAlign=middle;whiteSpace=wrap;rounded=0;" vertex="1" parent="Djli0VLdjuVr_oW39nnG-43">
          <mxGeometry x="85" y="30" width="40" height="20" as="geometry" />
        </mxCell>
      </root>
    </mxGraphModel>
  </diagram>
</mxfile>
